<?xml version="1.0" encoding="UTF-8" standalone="no"?>
<!-- Created with Inkscape (http://www.inkscape.org/) -->

<svg
   xmlns:dc="http://purl.org/dc/elements/1.1/"
   xmlns:cc="http://creativecommons.org/ns#"
   xmlns:rdf="http://www.w3.org/1999/02/22-rdf-syntax-ns#"
   xmlns:svg="http://www.w3.org/2000/svg"
   xmlns="http://www.w3.org/2000/svg"
   xmlns:sodipodi="http://sodipodi.sourceforge.net/DTD/sodipodi-0.dtd"
   xmlns:inkscape="http://www.inkscape.org/namespaces/inkscape"
   width="16"
   height="16"
   viewBox="0 0 4.2333332 4.2333335"
   version="1.1"
   id="svg4765"
   inkscape:version="0.92.2 (5c3e80d, 2017-08-06)"
   sodipodi:docname="state-delivered-to-recipient.svg">
  <defs
     id="defs4759" />
  <sodipodi:namedview
     id="base"
     pagecolor="#ffffff"
     bordercolor="#666666"
     borderopacity="1.0"
     inkscape:pageopacity="0.0"
     inkscape:pageshadow="2"
     inkscape:zoom="22.4"
     inkscape:cx="4.3523459"
     inkscape:cy="13.143394"
     inkscape:document-units="mm"
     inkscape:current-layer="layer1"
     showgrid="false"
     units="px"
     inkscape:window-width="2560"
     inkscape:window-height="1401"
     inkscape:window-x="1280"
     inkscape:window-y="39"
     inkscape:window-maximized="0" />
  <metadata
     id="metadata4762">
    <rdf:RDF>
      <cc:Work
         rdf:about="">
        <dc:format>image/svg+xml</dc:format>
        <dc:type
           rdf:resource="http://purl.org/dc/dcmitype/StillImage" />
        <dc:title></dc:title>
      </cc:Work>
    </rdf:RDF>
  </metadata>
  <g
     inkscape:label="Layer 1"
     inkscape:groupmode="layer"
     id="layer1"
     transform="translate(0,-292.76665)">
    <g
       id="g9290"
       style="font-style:normal;font-variant:normal;font-weight:normal;font-stretch:normal;font-size:11.28888893px;line-height:6.61458302px;font-family:Bakku2;-inkscape-font-specification:Bakku2;letter-spacing:0px;word-spacing:0px;fill:#00cd00;fill-opacity:1;stroke:#000000;stroke-width:0.13229167;stroke-linecap:butt;stroke-linejoin:miter;stroke-miterlimit:4;stroke-dasharray:none;stroke-opacity:1"
       aria-label="✓ "
       transform="translate(1.0276228)">
      <path
         id="path9288"
         style="font-style:normal;font-variant:normal;font-weight:normal;font-stretch:normal;font-size:5.64444447px;font-family:'Noto Sans';-inkscape-font-specification:'Noto Sans';fill:#00cd00;stroke:#000000;stroke-width:0.13229167;stroke-miterlimit:4;stroke-dasharray:none;stroke-opacity:1;fill-opacity:1"
         d="m 0.55515295,295.25905 q 0.10748698,0 0.16260851,0.17639 0.11024305,0.33073 0.15709635,0.33073 0.035829,0 0.0744141,-0.0551 0.77445739,-1.24024 1.43315969,-2.00643 0.1708767,-0.19844 0.5429471,-0.19844 0.088194,0 0.1185112,0.0165 0.030317,0.0165 0.030317,0.0413 0,0.0386 -0.09095,0.15159 -1.0638455,1.27882 -1.9733507,2.70095 -0.0633898,0.0992 -0.25907119,0.0992 -0.1984375,0 -0.23426649,-0.0165 -0.0937066,-0.0413 -0.22048611,-0.42168 -0.14331597,-0.42168 -0.14331597,-0.52916 0,-0.11576 0.19292534,-0.22324 0.11851129,-0.0661 0.20946181,-0.0661 z"
         inkscape:connector-curvature="0" />
    </g>
    <g
       aria-label="✓ "
       style="font-style:normal;font-variant:normal;font-weight:normal;font-stretch:normal;font-size:11.28888893px;line-height:6.61458302px;font-family:Bakku2;-inkscape-font-specification:Bakku2;letter-spacing:0px;word-spacing:0px;fill:#00cd00;fill-opacity:1;stroke:#000000;stroke-width:0.13229167;stroke-linecap:butt;stroke-linejoin:miter;stroke-opacity:1;stroke-miterlimit:4;stroke-dasharray:none"
       id="text9256">
      <path
         d="m 0.55515295,295.25905 q 0.10748698,0 0.16260851,0.17639 0.11024305,0.33073 0.15709635,0.33073 0.035829,0 0.0744141,-0.0551 0.77445743,-1.24024 1.43315973,-2.00643 0.1708767,-0.19844 0.5429471,-0.19844 0.088194,0 0.1185112,0.0165 0.030317,0.0165 0.030317,0.0413 0,0.0386 -0.09095,0.15159 -1.0638455,1.27882 -1.9733507,2.70095 -0.0633898,0.0992 -0.25907123,0.0992 -0.1984375,0 -0.23426649,-0.0165 -0.0937066,-0.0413 -0.22048611,-0.42168 -0.14331597,-0.42168 -0.14331597,-0.52916 0,-0.11576 0.19292534,-0.22324 0.11851129,-0.0661 0.20946181,-0.0661 z"
         style="font-style:normal;font-variant:normal;font-weight:normal;font-stretch:normal;font-size:5.64444447px;font-family:'Noto Sans';-inkscape-font-specification:'Noto Sans';fill:#00cd00;stroke:#000000;stroke-opacity:1;stroke-width:0.13229167;stroke-miterlimit:4;stroke-dasharray:none;fill-opacity:1"
         id="path9285" />
    </g>
  </g>
</svg>
