<?xml version="1.0" encoding="UTF-8" standalone="no"?>
<svg
   xmlns:dc="http://purl.org/dc/elements/1.1/"
   xmlns:cc="http://creativecommons.org/ns#"
   xmlns:rdf="http://www.w3.org/1999/02/22-rdf-syntax-ns#"
   xmlns:svg="http://www.w3.org/2000/svg"
   xmlns="http://www.w3.org/2000/svg"
   id="svg7301"
   version="1.1"
   viewBox="0 0 48 48"
   height="48"
   width="48">
  <defs
     id="defs7295" />
  <metadata
     id="metadata7298">
    <rdf:RDF>
      <cc:Work
         rdf:about="">
        <dc:format>image/svg+xml</dc:format>
        <dc:type
           rdf:resource="http://purl.org/dc/dcmitype/StillImage" />
        <dc:title></dc:title>
      </cc:Work>
    </rdf:RDF>
  </metadata>
  <g
     transform="translate(-64.581145,-148.11608)"
     id="layer1">
    <path
       id="rect7253"
       d="m 67.054445,148.12292 c -0.13942,-0.004 -0.239598,0.0399 -0.296239,0.13562 -1.522121,2.58471 -1.214204,9.21175 -1.060926,15.71192 0.153286,6.50005 -0.07381,7.57674 0.120312,11.09966 0.231809,3.68748 0.405207,6.36287 0.405207,9.23435 0,6.5402 5.265252,11.80519 11.805426,11.80519 h 21.135352 c 6.540173,0 12.267643,-5.35745 12.267643,-11.89762 0.0342,-4.03539 0.007,-6.15765 -0.0868,-9.14192 0.19416,-3.52292 -0.0327,-4.59961 0.12058,-11.09966 0.15329,-6.50017 0.4612,-13.12721 -1.06092,-15.71192 -0.45347,-0.77019 -3.69343,1.80631 -7.49069,5.79198 -3.517918,3.69242 -5.095765,5.53265 -6.658276,6.45275 h -15.34816 c -1.562515,-0.9201 -3.140366,-2.76033 -6.658279,-6.45275 -3.322599,-3.48744 -6.218353,-5.8958 -7.194175,-5.92748 z"
       style="opacity:1;fill:#000000;fill-opacity:1;stroke:none;stroke-width:1.07711697;stroke-linecap:round;stroke-linejoin:miter;stroke-miterlimit:4;stroke-dasharray:none;stroke-dashoffset:0;stroke-opacity:1" />
  </g>
</svg>
